<?xml version="1.0" standalone="no"?>
<!DOCTYPE svg PUBLIC "-//W3C//DTD SVG 20010904//EN"
 "http://www.w3.org/TR/2001/REC-SVG-20010904/DTD/svg10.dtd">
<svg version="1.0" xmlns="http://www.w3.org/2000/svg"
 width="601.000000pt" height="601.000000pt" viewBox="0 0 601.000000 601.000000"
 preserveAspectRatio="xMidYMid meet">
<metadata>
Created by potrace 1.14, written by Peter Selinger 2001-2017
</metadata>
<g transform="translate(0.000000,601.000000) scale(0.100000,-0.100000)"
fill="#000000" stroke="none">
<path d="M2390 5973 c-428 -65 -806 -316 -1121 -743 -221 -301 -404 -712 -509
-1145 -60 -248 -110 -575 -110 -722 0 -35 -4 -63 -10 -63 -6 0 -10 -88 -10
-245 0 -157 4 -245 10 -245 6 0 10 -28 10 -62 0 -35 7 -124 15 -198 115 -1035
580 -1917 1220 -2318 163 -101 362 -178 530 -203 39 -6 78 -15 87 -20 23 -12
591 -12 584 0 -3 5 109 11 257 14 216 4 279 9 359 26 517 113 970 518 1277
1144 148 303 244 593 311 942 25 133 60 399 60 460 0 25 5 45 10 45 6 0 10
110 10 310 0 171 -4 310 -8 310 -4 0 -13 62 -20 138 -13 145 -41 330 -66 428
l-15 59 5 -80 c7 -114 7 -115 -82 -115 -43 0 -74 4 -74 10 0 6 -18 10 -40 10
-22 0 -40 -4 -40 -10 0 -6 -35 -10 -86 -10 -63 0 -89 -4 -100 -15 -9 -8 -24
-15 -35 -15 -10 0 -19 7 -19 15 0 11 -11 15 -40 15 -29 0 -40 -4 -40 -15 0
-12 -14 -15 -65 -15 -37 0 -65 -4 -65 -10 0 -5 -7 -10 -15 -10 -9 0 -19 -10
-24 -22 -8 -22 -8 -22 -14 -3 -3 11 -13 58 -22 105 -27 137 -73 316 -112 440
-29 90 -38 110 -43 90 -6 -24 -6 -24 -18 -5 -11 18 -12 16 -7 -15 l5 -35 -13
30 -14 30 -14 -28 c-14 -32 -11 -54 42 -275 37 -154 73 -363 96 -552 24 -204
25 -715 0 -920 -83 -695 -299 -1272 -643 -1720 -76 -99 -257 -288 -357 -371
-58 -49 -67 -63 -22 -33 17 11 25 12 25 5 0 -7 4 -9 10 -6 6 3 10 1 10 -5 0
-7 -6 -10 -13 -7 -8 3 -20 1 -28 -5 -11 -8 -10 -9 4 -4 9 3 17 1 17 -4 0 -5 7
-7 15 -4 11 5 13 2 9 -10 -5 -12 -2 -15 10 -10 29 11 17 -2 -49 -50 -133 -97
-408 -207 -555 -221 -53 -5 -54 -4 -25 9 25 12 26 15 9 15 -11 1 -29 -6 -40
-14 -25 -19 -40 -19 -20 0 8 8 19 15 25 15 5 0 13 4 16 10 4 6 -4 6 -21 0 -31
-12 -54 -7 -54 12 0 10 -36 13 -153 14 -238 1 -430 51 -647 166 -163 87 -276
173 -431 327 -398 397 -683 1000 -805 1706 -15 83 -27 187 -28 232 0 44 -4 79
-8 76 -5 -2 -8 2 -8 11 0 28 23 121 33 131 7 7 8 4 3 -8 -4 -12 2 -31 16 -50
l22 -31 9 34 c4 19 10 53 13 75 2 22 6 45 9 52 2 6 0 26 -5 43 -8 28 -7 30 6
19 10 -8 14 -24 12 -41 -5 -30 7 -36 55 -30 24 4 27 8 27 43 0 22 4 39 9 39 6
0 11 17 13 38 3 31 7 37 28 40 17 2 30 13 39 32 33 75 58 3 76 -213 32 -382
122 -750 246 -1007 42 -86 53 -101 59 -85 6 14 9 15 10 5 1 -8 6 -2 12 13 8
24 12 26 26 15 14 -12 15 -9 9 27 l-6 40 18 -35 c82 -161 189 -326 298 -460 7
-8 20 -24 28 -35 16 -19 16 -19 5 3 -7 15 -7 22 0 22 5 0 10 -4 10 -9 0 -5 7
-11 15 -15 13 -4 12 -1 -1 20 -10 14 -23 23 -30 20 -7 -3 -16 -1 -19 4 -3 4 0
10 7 12 11 4 -42 92 -67 110 -7 5 -7 8 0 8 6 0 6 3 -1 8 -19 13 -142 244 -185
347 -83 200 -141 393 -154 515 -4 30 -8 66 -9 80 -2 14 -6 71 -11 127 -7 101
-7 103 14 103 12 0 21 6 21 15 0 8 5 15 10 15 6 0 10 16 10 35 0 21 6 37 16
43 12 7 15 19 12 46 -2 20 0 36 4 36 4 0 8 36 8 79 0 71 2 80 20 86 15 5 20
15 20 41 0 19 -4 34 -10 34 -5 0 -10 18 -10 40 0 29 4 40 13 38 8 -2 32 16 55
40 22 23 45 42 51 42 6 0 11 18 11 40 0 36 3 40 25 40 23 0 25 4 25 40 0 29
-4 40 -15 40 -11 0 -15 11 -15 40 0 38 2 40 30 40 l30 0 0 120 c0 73 4 120 10
120 6 0 10 18 10 40 0 40 0 40 39 40 l40 0 3 52 c2 30 8 53 16 56 6 2 12 -3
12 -12 0 -9 7 -16 15 -16 11 0 15 11 15 40 0 36 3 40 25 40 24 0 25 3 25 55
l0 55 40 0 c33 0 40 3 40 20 0 11 31 51 71 92 70 71 71 71 120 69 48 -2 49 -2
49 29 0 29 1 30 46 30 l47 0 -7 -57 c-3 -32 -3 -53 1 -48 29 38 31 5 31 -818
1 -1082 28 -1949 62 -1980 10 -9 14 -9 17 1 3 6 9 12 15 12 6 0 25 11 43 24
31 24 85 26 85 4 0 -6 -11 -7 -25 -4 -26 7 -35 -8 -11 -17 29 -11 431 -18 461
-8 25 8 26 9 8 10 -33 1 -28 21 5 21 21 0 24 2 12 10 -13 8 -12 10 3 10 10 0
16 4 12 9 -3 6 -2 29 2 53 7 43 7 43 15 13 4 -16 5 65 3 180 -3 116 -10 442
-16 725 -12 542 -6 1191 11 1250 13 46 13 100 -1 100 -7 0 -5 9 4 24 12 17 18
64 23 167 5 99 11 148 21 157 16 17 17 49 1 55 -10 4 -10 7 0 18 6 7 12 34 12
60 0 39 5 51 25 67 14 11 25 27 25 36 0 9 5 16 10 16 6 0 10 9 10 20 0 11 -4
20 -10 20 -5 0 -10 18 -10 40 0 29 4 40 15 40 8 0 15 7 15 15 0 11 11 15 40
15 29 0 40 -4 40 -15 0 -12 20 -15 116 -15 l116 0 38 -40 c38 -40 50 -42 50
-8 0 20 11 23 27 7 7 -7 9 -32 6 -65 -4 -37 -2 -54 6 -54 6 0 11 -17 11 -40 0
-29 4 -40 15 -40 8 0 15 -7 15 -15 0 -10 10 -15 30 -15 20 0 30 5 30 15 0 8 5
15 10 15 6 0 10 10 10 23 1 21 1 21 12 3 8 -15 8 -21 0 -24 -17 -5 -15 -51 2
-68 8 -8 26 -14 40 -14 21 0 26 5 26 26 0 14 4 23 10 19 6 -3 10 -15 10 -26 0
-10 -4 -19 -10 -19 -5 0 -10 -7 -10 -16 0 -12 6 -15 21 -11 15 4 23 -1 30 -20
5 -13 7 -28 4 -33 -3 -4 2 -14 11 -21 23 -19 45 -66 38 -83 -3 -9 -1 -16 5
-16 6 0 11 -9 11 -20 0 -11 5 -20 10 -20 6 0 10 -7 10 -15 0 -15 20 -56 31
-65 4 -3 17 -50 28 -105 12 -55 28 -125 36 -155 16 -62 41 -216 55 -336 l9
-79 -5 94 c-7 131 -38 333 -80 516 -21 90 -104 357 -114 369 -5 5 -6 15 -3 23
3 7 -2 22 -12 33 -9 10 -14 24 -9 31 4 7 3 10 -3 6 -12 -7 -26 32 -27 73 -1
14 -6 24 -13 23 -12 -3 -17 8 -28 64 -4 18 -11 31 -16 30 -5 -1 -23 23 -40 53
-17 30 -38 63 -46 73 -10 10 -12 17 -5 17 7 0 12 -4 12 -10 0 -5 10 -10 23 -9
l22 0 -22 9 c-13 5 -23 17 -23 26 0 10 -5 14 -15 10 -17 -6 -19 2 -5 24 8 12
11 13 19 1 6 -9 9 -6 9 13 0 15 -6 26 -14 26 -8 0 -14 5 -14 11 0 7 9 9 23 5
12 -3 37 -6 55 -6 22 0 32 -5 32 -15 0 -11 11 -15 40 -15 29 0 40 -4 40 -15 0
-11 11 -15 40 -15 29 0 40 4 40 15 0 11 11 15 40 15 l40 0 0 -55 0 -55 40 0
c38 0 40 2 40 29 0 34 15 49 24 24 4 -9 2 -20 -5 -23 -8 -5 -7 -15 5 -36 8
-16 15 -25 16 -20 0 5 8 2 17 -5 15 -13 16 -11 10 11 -4 14 -7 29 -7 33 0 5
-5 5 -12 1 -7 -5 -9 -2 -5 8 3 9 -22 73 -59 148 -35 72 -64 133 -64 135 0 17
-84 133 -93 128 -6 -3 -7 -1 -3 5 6 10 -38 88 -77 137 -4 6 -31 42 -59 80 -65
88 -239 267 -338 349 -252 208 -562 338 -842 353 -77 4 -108 10 -108 18 0 8
18 15 43 19 116 16 161 23 152 26 -5 1 6 6 25 10 36 7 -252 11 -300 3z m270
-684 c85 -19 180 -50 180 -58 0 -5 -9 -11 -21 -14 -12 -3 -18 -10 -14 -17 5
-8 -8 -9 -47 -3 -29 4 -116 8 -193 7 -197 -1 -311 -33 -497 -138 -199 -111
-354 -267 -547 -547 -24 -35 -41 -56 -38 -46 4 9 2 17 -3 17 -6 0 -10 -7 -10
-16 0 -8 -5 -12 -10 -9 -6 4 -7 12 -3 18 4 7 0 6 -10 -2 -15 -12 -21 -9 -18
12 2 13 -8 8 -35 -20 l-26 -26 7 24 c34 113 239 388 384 516 240 211 477 311
746 312 61 0 130 -4 155 -10z m187 -105 c-3 -3 -12 -4 -19 -1 -8 3 -5 6 6 6
11 1 17 -2 13 -5z m48 -493 c25 -5 29 -11 27 -31 -2 -14 -7 -28 -10 -32 -4 -4
-121 -8 -259 -9 l-253 -1 -30 31 c-17 17 -29 35 -25 41 7 11 499 12 550 1z
m1142 -23 c-3 -7 -5 -2 -5 12 0 14 2 19 5 13 2 -7 2 -19 0 -25z m-22 -8 c3 -5
1 -10 -4 -10 -6 0 -11 5 -11 10 0 6 2 10 4 10 3 0 8 -4 11 -10z m-397 -318 c2
-7 -3 -12 -12 -12 -9 0 -16 7 -16 16 0 17 22 14 28 -4z m-2951 -1554 c-3 -8
-6 -5 -6 6 -1 11 2 17 5 13 3 -3 4 -12 1 -19z m2290 -1050 c-2 -29 -3 -8 -3
47 0 55 1 79 3 53 2 -26 2 -71 0 -100z m-1248 -413 c0 -5 -6 -1 -14 9 -8 11
-15 24 -15 30 0 5 7 1 15 -10 8 -10 14 -23 14 -29z"/>
<path d="M4071 4504 c0 -11 3 -14 6 -6 3 7 2 16 -1 19 -3 4 -6 -2 -5 -13z"/>
<path d="M2023 4135 c-18 -19 -33 -37 -33 -40 0 -3 14 -5 30 -5 17 0 30 5 30
11 0 5 5 7 10 4 6 -4 10 8 10 29 0 20 -3 36 -7 35 -5 0 -23 -16 -40 -34z"/>
<path d="M3766 4105 c-3 -9 0 -15 9 -15 16 0 20 16 6 24 -5 3 -11 -1 -15 -9z"/>
<path d="M4532 3650 c0 -14 2 -19 5 -12 2 6 2 18 0 25 -3 6 -5 1 -5 -13z"/>
<path d="M4047 2910 c-4 -135 -9 -274 -11 -310 -4 -64 -4 -65 5 -15 10 55 24
518 17 550 -2 11 -8 -90 -11 -225z"/>
<path d="M691 2653 c1 -21 5 -49 9 -63 5 -17 7 -6 6 37 0 35 -4 63 -8 63 -5 0
-8 -17 -7 -37z"/>
<path d="M4023 2495 c0 -22 2 -30 4 -17 2 12 2 30 0 40 -3 9 -5 -1 -4 -23z"/>
<path d="M4012 2425 c0 -16 2 -22 5 -12 2 9 2 23 0 30 -3 6 -5 -1 -5 -18z"/>
<path d="M4001 2365 c-1 -11 -4 -31 -6 -45 l-6 -25 11 25 c6 13 9 33 7 45 -4
19 -4 19 -6 0z"/>
<path d="M3978 2260 c-7 -29 -35 -143 -43 -180 l-6 -25 11 25 c19 42 51 172
47 189 -2 11 -5 8 -9 -9z"/>
<path d="M3880 1918 c-45 -126 -107 -266 -165 -368 -66 -117 -78 -141 -73
-145 7 -8 66 91 131 220 56 112 153 372 143 382 -2 2 -18 -38 -36 -89z"/>
<path d="M3612 1360 c-7 -11 -8 -20 -3 -20 9 0 24 30 18 36 -1 2 -8 -6 -15
-16z"/>
</g>
</svg>
